<?xml version="1.0" encoding="UTF-8" standalone="no"?>
<!-- Created with Inkscape (http://www.inkscape.org/) -->

<svg
   width="372.06311"
   height="527.60101"
   viewBox="0 0 98.441698 139.59443"
   version="1.1"
   id="svg241"
   sodipodi:docname="avatar.svg"
   inkscape:version="1.1 (c68e22c387, 2021-05-23)"
   xmlns:inkscape="http://www.inkscape.org/namespaces/inkscape"
   xmlns:sodipodi="http://sodipodi.sourceforge.net/DTD/sodipodi-0.dtd"
   xmlns="http://www.w3.org/2000/svg"
   xmlns:svg="http://www.w3.org/2000/svg">
  <sodipodi:namedview
     id="namedview8"
     pagecolor="#ffffff"
     bordercolor="#666666"
     borderopacity="1.0"
     inkscape:pageshadow="2"
     inkscape:pageopacity="0.0"
     inkscape:pagecheckerboard="0"
     showgrid="false"
     inkscape:zoom="1.5617862"
     inkscape:cx="166.79619"
     inkscape:cy="366.56745"
     inkscape:window-width="1920"
     inkscape:window-height="1009"
     inkscape:window-x="-8"
     inkscape:window-y="-8"
     inkscape:window-maximized="1"
     inkscape:current-layer="svg241" />
  <defs
     id="defs238">
    <clipPath
       clipPathUnits="userSpaceOnUse"
       id="clipPath113">
      <rect
         style="fill:#269466;fill-opacity:0;stroke-width:0.259924"
         id="rect115"
         width="98.664429"
         height="139.59444"
         x="-385.61432"
         y="32.113293"
         ry="0.50973475" />
    </clipPath>
  </defs>
  <g
     id="layer1"
     transform="translate(-410.62469,-144.76967)">
    <path
       style="fill:#000000;stroke-width:0.159497"
       d="M -385.39159,191.84469 V 170.4143 l 0.44109,-0.55504 c 0.2426,-0.30527 0.65529,-0.77284 0.9171,-1.03905 0.26182,-0.26622 0.86187,-0.92478 1.33346,-1.46347 1.16381,-1.32939 2.36229,-2.52887 3.2374,-3.2401 0.66201,-0.53803 0.73571,-0.66813 0.8131,-1.43547 0.0468,-0.4641 0.009,-1.13515 -0.0838,-1.49121 -0.25167,-0.96478 -0.0487,-1.44441 1.0791,-2.55025 1.15563,-1.13309 1.99015,-1.53062 4.70327,-2.2405 0.9211,-0.24098 1.96182,-0.59431 2.31271,-0.78517 0.35089,-0.19085 1.21217,-0.6563 1.91396,-1.0343 0.70179,-0.37801 1.41952,-0.80168 1.59497,-0.94151 0.42819,-0.34123 0.90587,-0.6095 2.23296,-1.25404 0.61406,-0.29824 1.43945,-0.74456 1.83421,-0.99181 0.39475,-0.24726 1.11249,-0.57729 1.59497,-0.73341 0.48248,-0.15613 1.37965,-0.51492 1.99371,-0.79732 0.61406,-0.2824 1.43946,-0.56363 1.83421,-0.62495 0.39476,-0.0613 1.3637,-0.28759 2.15321,-0.50281 0.78951,-0.21522 1.85038,-0.45849 2.3575,-0.54061 0.54773,-0.0887 1.66831,-0.5108 2.7604,-1.0398 2.06509,-1.00032 3.35161,-1.47883 4.29241,-1.59655 0.3509,-0.0439 1.28395,-0.39725 2.07346,-0.78522 0.78951,-0.38796 1.79434,-0.82116 2.23296,-0.96266 0.43861,-0.1415 1.37784,-0.5026 2.08716,-0.80243 0.70932,-0.29983 1.84167,-0.68309 2.51632,-0.85168 0.67466,-0.16859 1.85276,-0.62651 2.618,-1.01759 0.76524,-0.39108 1.92046,-0.83787 2.56715,-0.99288 0.78925,-0.18917 1.34722,-0.43234 1.69725,-0.73967 0.2868,-0.25181 0.87018,-0.61202 1.2964,-0.80046 0.42622,-0.18845 0.95923,-0.47877 1.18446,-0.64517 0.22523,-0.16639 1.05062,-0.47257 1.83421,-0.68038 1.25651,-0.33324 1.4812,-0.44915 1.9032,-0.98175 1.43598,-1.81234 1.50868,-1.86098 2.96903,-1.98603 0.73556,-0.063 1.62568,-0.20382 1.97805,-0.31296 0.65225,-0.20203 2.46952,-0.0921 2.46952,0.14932 0,0.0656 -0.4957,0.59518 -1.10157,1.17687 -1.58302,1.51984 -1.70327,2.22251 -0.94737,5.5356 0.57681,2.52816 2.41377,5.67936 4.37807,7.51035 2.11423,1.97075 5.45773,4.4522 6.48307,4.81156 0.24124,0.0846 0.43862,0.23044 0.43862,0.32421 0,0.0938 0.0472,0.12324 0.10495,0.0655 0.0577,-0.0577 0.20192,-0.0245 0.32045,0.0739 0.28251,0.23446 3.49464,1.91182 6.56761,3.42958 2.77669,1.37143 3.80333,1.60569 4.2489,0.96955 0.13302,-0.18993 0.24186,-0.47514 0.24186,-0.63383 0,-0.15868 0.10766,-0.32982 0.23925,-0.38032 0.13158,-0.0505 0.23924,-0.26355 0.23924,-0.47348 0,-0.23293 0.0932,-0.38167 0.23925,-0.38167 0.13158,0 0.23924,-0.10396 0.23924,-0.23104 0,-0.32532 0.67727,-1.01038 0.91711,-0.92764 0.10966,0.0378 0.19937,-0.0121 0.19937,-0.111 0,-0.0989 0.0897,-0.16812 0.19937,-0.1539 0.45262,0.0588 0.62808,-0.0228 0.54044,-0.25114 -0.0624,-0.16274 0.009,-0.23925 0.22218,-0.23925 0.17269,0 0.29604,-0.0897 0.27411,-0.19937 -0.0236,-0.11823 0.0864,-0.17737 0.27054,-0.14531 0.27885,0.0486 0.28696,0.0251 0.0797,-0.23 -0.15686,-0.19315 -0.16464,-0.24433 -0.0243,-0.15994 0.30356,0.18256 0.64979,-0.17988 0.56083,-0.58709 -0.0607,-0.27759 -0.0419,-0.30288 0.0875,-0.11838 0.0906,0.12905 0.22228,0.17701 0.2927,0.10659 0.0704,-0.0704 0.003,-0.21981 -0.15082,-0.33196 -0.29205,-0.21355 -0.39591,-0.49916 -0.11937,-0.32825 0.093,0.0575 0.15949,-0.10467 0.15949,-0.38933 0,-0.40507 0.0633,-0.4879 0.37289,-0.4879 0.33237,0 0.37587,-0.0791 0.40042,-0.72819 0.0172,-0.45605 -0.0327,-0.69096 -0.13363,-0.62857 -0.20438,0.12631 -0.20397,-0.0858 7.9e-4,-0.3977 0.13102,-0.19958 0.17337,-0.17975 0.25541,0.11962 0.0541,0.19738 0.16943,0.35887 0.2563,0.35887 0.0891,0 0.10648,-0.12168 0.0399,-0.27912 -0.0649,-0.15352 -0.1131,-0.4032 -0.10698,-0.55485 0.006,-0.15165 -0.0381,-0.26586 -0.0983,-0.2538 -0.17635,0.0353 -0.7381,-0.23071 -0.85431,-0.40459 -0.0588,-0.0879 -0.22027,-0.18291 -0.35887,-0.21101 -0.1386,-0.0281 -0.3776,-0.0776 -0.53112,-0.10994 -0.30339,-0.064 -0.34554,-0.86872 -0.0549,-1.04834 0.0863,-0.0533 0.13511,-0.23871 0.10853,-0.41199 -0.0266,-0.17327 0.0227,-0.36099 0.10953,-0.41714 0.0868,-0.0562 0.16927,-0.27148 0.18324,-0.47849 0.014,-0.20702 0.11221,-0.35845 0.21831,-0.33652 0.1061,0.0219 0.19291,-0.072 0.19291,-0.20878 0,-0.14754 -0.075,-0.20232 -0.18439,-0.1347 -0.13265,0.082 -0.15469,-0.0346 -0.0785,-0.41531 0.0779,-0.38955 0.0318,-0.61376 -0.17448,-0.84933 -0.26068,-0.29763 -0.26113,-0.31306 -0.006,-0.22023 0.1507,0.0549 0.31243,0.0377 0.35938,-0.0383 0.14228,-0.23021 -0.0852,-0.62711 -0.42042,-0.7335 -0.18534,-0.0588 -0.28054,-0.19211 -0.23045,-0.32263 0.048,-0.12498 -0.0612,-0.30085 -0.24926,-0.40148 -0.18403,-0.0985 -0.26973,-0.22519 -0.19044,-0.28155 0.20601,-0.14645 0.22499,-2.13476 0.0227,-2.37849 -0.0931,-0.11215 -0.12564,-0.24748 -0.0724,-0.30075 0.0533,-0.0533 -0.004,-0.24139 -0.12815,-0.41806 -0.13972,-0.19948 -0.1886,-0.50319 -0.12897,-0.80134 0.0742,-0.37087 0.0485,-0.45071 -0.11301,-0.35092 -0.13322,0.0823 -0.17044,0.0667 -0.10262,-0.043 0.15778,-0.25529 -0.22847,-0.9932 -0.52135,-0.99602 -0.19972,-0.002 -0.20837,-0.0311 -0.0408,-0.1373 0.16737,-0.1061 0.15036,-0.16183 -0.0797,-0.26132 -0.16087,-0.0696 -0.4181,-0.11091 -0.57162,-0.0919 -0.15351,0.019 -0.27912,-0.0647 -0.27912,-0.18597 0,-0.28626 -0.6786,-0.8759 -0.91671,-0.79652 -0.10108,0.0337 -0.26902,-0.0752 -0.37321,-0.24205 -0.12473,-0.19974 -0.31443,-0.27942 -0.55551,-0.23333 -0.20136,0.0385 -0.53044,-0.0451 -0.73129,-0.18581 -0.2009,-0.14069 -0.45983,-0.25579 -0.57545,-0.25579 -0.11562,0 -0.4158,-0.152 -0.66708,-0.33778 -0.25128,-0.18578 -0.52734,-0.29423 -0.61346,-0.241 -0.0861,0.0532 -0.24528,-0.0101 -0.35369,-0.14071 -0.1084,-0.13062 -0.30183,-0.23749 -0.42984,-0.23749 -0.12801,0 -0.53931,-0.25121 -0.91401,-0.55824 -0.37469,-0.30703 -0.76358,-0.55824 -0.8642,-0.55824 -0.10062,0 -0.18294,-0.0985 -0.18294,-0.21886 0,-0.22742 0.89498,-0.45312 1.91396,-0.48268 0.30703,-0.009 1.10536,-0.28535 1.77407,-0.61431 0.6687,-0.32896 1.31466,-0.6005 1.43547,-0.60342 0.41494,-0.01 0.94544,-0.58515 0.82814,-0.89779 -0.0936,-0.24957 -0.073,-0.26309 0.13891,-0.091 0.25389,0.20618 0.75171,0.11806 0.78775,-0.13943 0.011,-0.0783 0.0379,-0.21421 0.0598,-0.30193 0.0219,-0.0877 0.0489,-0.23127 0.0598,-0.319 0.0384,-0.30755 0.33893,-0.15604 0.33893,0.17089 0,0.29368 0.0266,0.30381 0.23925,0.0911 0.27335,-0.27335 0.31558,-0.58102 0.0798,-0.58102 -0.0877,0 -0.1595,-0.0778 -0.1595,-0.17279 0,-0.095 0.0891,-0.1431 0.19795,-0.10681 0.10887,0.0363 0.299,-0.0351 0.42252,-0.15859 0.12351,-0.12351 0.35492,-0.19048 0.51424,-0.14882 0.188,0.0492 0.32363,-0.0313 0.38645,-0.22918 0.0532,-0.1677 0.15294,-0.27021 0.22158,-0.22779 0.18791,0.11614 1.1282,-0.78072 1.1282,-1.07608 0,-0.44095 0.3539,-1.05946 0.6622,-1.15731 0.16213,-0.0515 0.30376,-0.1605 0.31472,-0.24231 0.011,-0.0818 0.0289,-0.21454 0.0399,-0.29495 0.011,-0.0804 0.0726,-0.19887 0.13696,-0.26324 0.0644,-0.0644 -0.0592,-0.28036 -0.27461,-0.47999 -0.25385,-0.23526 -0.32308,-0.38697 -0.19678,-0.4312 0.13708,-0.048 0.10586,-0.16853 -0.10529,-0.40646 -0.23278,-0.2623 -0.27765,-0.47896 -0.1999,-0.96519 l 0.10026,-0.62697 -0.57604,0.17679 c -0.49697,0.15253 -0.60487,0.13738 -0.786,-0.11034 -0.11548,-0.15792 -0.17382,-0.38134 -0.12963,-0.49647 0.10775,-0.28081 -0.32883,-0.40069 -1.81295,-0.49785 -1.51957,-0.0995 -2.41796,-0.0894 -2.60999,0.0293 -0.0799,0.0494 -0.14521,-0.0221 -0.14521,-0.15891 0,-0.15829 -0.14359,-0.24866 -0.39507,-0.24866 -0.5508,0 -0.91675,-0.59277 -0.7438,-1.20481 0.073,-0.25844 0.1063,-0.54661 0.0739,-0.64037 -0.0729,-0.21113 0.49788,-0.51448 1.17636,-0.62518 0.28059,-0.0458 0.70324,-0.15666 0.93923,-0.24638 0.23598,-0.0897 0.46263,-0.12955 0.50366,-0.0885 0.14202,0.14201 0.69553,-0.50516 0.72097,-0.84296 0.0141,-0.18656 0.11016,-0.3392 0.21357,-0.3392 0.20276,0 0.41562,-0.63803 0.32834,-0.98418 -0.0294,-0.11662 -0.0177,-0.14108 0.0261,-0.0543 0.0438,0.0867 0.16318,-0.12859 0.26535,-0.47849 0.10217,-0.34991 0.26991,-0.61825 0.37276,-0.59632 0.11339,0.0242 0.18699,-0.16812 0.18699,-0.48853 v -0.5284 l -0.75637,0.0569 c -0.8432,0.0634 -1.45562,0.38432 -1.42018,0.74418 0.0237,0.24043 -0.005,0.25574 -0.48563,0.25574 -0.23642,0 -0.2315,-0.031 0.0399,-0.25107 0.17029,-0.13809 0.21989,-0.20563 0.11024,-0.15008 -0.10966,0.0555 -0.19937,0.0342 -0.19937,-0.0475 0,-0.1343 -0.6843,-0.30479 -1.75447,-0.43712 -0.21931,-0.0271 -0.72387,-0.0905 -1.12126,-0.14082 -2.4016,-0.3042 -3.36296,-0.35744 -4.78012,-0.26471 -0.41027,0.0268 -1.40512,-0.13255 -2.32232,-0.37208 -1.50908,-0.3941 -1.63957,-0.40443 -2.19232,-0.17347 -0.32326,0.13506 -0.62297,0.24758 -0.66603,0.25004 -0.0431,0.002 -0.37253,0.10828 -0.73215,0.23516 -0.58501,0.20641 -0.68088,0.20367 -0.91049,-0.0259 -0.33963,-0.33963 -0.35201,-0.70771 -0.0456,-1.35683 0.24595,-0.52108 0.27991,-0.53593 1.28552,-0.562 0.61175,-0.0159 1.19647,0.0609 1.43407,0.18818 0.70789,0.3793 1.45673,0.55737 1.73276,0.41206 0.2625,-0.13819 0.96363,-0.2454 2.85521,-0.43662 0.54827,-0.0554 0.99686,-0.16695 0.99686,-0.24784 0,-0.0809 0.078,-0.0988 0.17339,-0.0399 0.0954,0.0589 0.13938,0.23724 0.0978,0.39622 -0.0515,0.19698 -0.006,0.26238 0.14268,0.2053 0.15723,-0.0603 0.1753,-0.16406 0.0646,-0.37086 -0.11631,-0.21732 -0.0865,-0.31653 0.12254,-0.40812 0.15191,-0.0666 0.33003,-0.10962 0.39582,-0.0957 0.0658,0.0139 0.11963,-0.0465 0.11963,-0.13417 0,-0.0877 0.11534,-0.1595 0.25631,-0.1595 0.17848,0 0.22381,0.0847 0.1493,0.27885 -0.0682,0.17782 0.0668,0.11236 0.37265,-0.18068 0.43117,-0.41309 0.57325,-0.45521 1.40579,-0.41674 1.50573,0.0696 2.64114,0.005 2.84152,-0.1611 0.10308,-0.0855 0.23476,-0.10821 0.29261,-0.0504 0.0579,0.0579 0.26657,0.0296 0.46382,-0.0629 0.19724,-0.0924 0.93281,-0.42099 1.6346,-0.73013 0.89706,-0.39515 1.27618,-0.64536 1.27665,-0.84255 3.2e-4,-0.15427 0.0909,-0.31057 0.2012,-0.34733 0.11029,-0.0368 0.27564,-0.2072 0.36745,-0.37874 0.13459,-0.2515 0.0956,-0.37473 -0.2012,-0.63624 -0.20247,-0.17839 -0.26046,-0.27766 -0.12888,-0.22061 0.13159,0.0571 0.0999,-0.009 -0.0704,-0.14734 -0.17028,-0.13809 -0.24564,-0.25108 -0.16747,-0.25108 0.0782,0 0.056,-0.0861 -0.0493,-0.19139 -0.10527,-0.10527 -0.1914,-0.31357 -0.1914,-0.46289 0,-0.16001 -0.20236,-0.34203 -0.49281,-0.44329 -0.27105,-0.0945 -0.63512,-0.35271 -0.80906,-0.57384 -0.17394,-0.22112 -0.42557,-0.40205 -0.55917,-0.40205 -0.13361,0 -0.4588,-0.15371 -0.72265,-0.34159 -0.39536,-0.28152 -0.50446,-0.30256 -0.6203,-0.11963 -0.10077,0.15914 -0.14125,0.16554 -0.143,0.0226 -10e-4,-0.11235 -0.2011,-0.19937 -0.45756,-0.19937 -0.53132,0 -1.0651,-0.48556 -1.91485,-1.74186 -0.65505,-0.96845 -0.9005,-1.12928 -1.02089,-0.66892 -0.0545,0.20838 -0.31569,0.37619 -0.77792,0.49977 -0.38273,0.10232 -0.93158,0.28707 -1.21965,0.41054 -0.73046,0.31308 -1.35716,0.27997 -1.78893,-0.0945 -0.20229,-0.17545 -0.41881,-0.31899 -0.48115,-0.31899 -0.13909,0 -0.95433,-0.80276 -0.95433,-0.93973 0,-0.268283 1.31968,-1.454813 1.63454,-1.469633 0.82869,-0.039 1.36142,0.0688 2.12903,0.43094 1.02261,0.48238 1.18084,0.48004 1.18084,-0.0175 0,-0.71422 0.46688,-1.32389 1.35572,-1.77034 0.26317,-0.13218 0.65793,-0.34296 0.87723,-0.4684 0.21931,-0.12544 0.48846,-0.19516 0.59812,-0.15494 0.10965,0.0402 0.19937,0.005 0.19937,-0.0773 0,-0.0827 0.21532,-0.26174 0.47849,-0.39783 0.26317,-0.13609 0.47849,-0.34969 0.47849,-0.47466 0,-0.12497 0.11369,-0.290852 0.25265,-0.368612 0.15443,-0.0864 0.27952,-0.429 0.32177,-0.88122 0.0575,-0.6151 0.028,-0.72405 -0.17472,-0.64626 -0.1757,0.0674 -0.21613,0.0214 -0.14473,-0.16467 0.0545,-0.14203 -0.009,-0.42333 -0.14129,-0.62512 -0.17317,-0.26429 -0.19576,-0.44664 -0.0808,-0.65213 0.10931,-0.19532 0.10414,-0.34073 -0.0164,-0.46127 -0.0968,-0.0968 -0.17493,-0.25138 -0.17358,-0.34349 10e-4,-0.0921 0.072,-0.0598 0.15705,0.0718 0.085,0.13159 0.15343,0.16747 0.15198,0.0798 -10e-4,-0.0877 -0.10801,-0.29882 -0.2368,-0.4691 -0.26807,-0.35442 -0.31084,-0.63384 -0.0747,-0.48788 0.0877,0.0542 0.1595,0.0226 0.1595,-0.0703 0,-0.0929 -0.0735,-0.16891 -0.16325,-0.16891 -0.092,0 -0.13639,-0.24378 -0.10174,-0.55824 0.0338,-0.30703 0.0176,-0.55838 -0.0361,-0.55855 -0.0537,-1.6e-4 -0.11269,-0.2155 -0.13108,-0.47849 -0.0184,-0.263 0.0397,-0.47818 0.12903,-0.47818 0.0894,0 0.11446,-0.0777 0.0558,-0.17268 -0.15701,-0.25406 -0.19531,-3.01725 -0.0418,-3.01725 0.14326,0 0.0757,-2.16603 -0.0796,-2.55195 -0.0529,-0.13159 -0.13162,-0.56223 -0.17482,-0.95698 -0.1111,-1.01537 -0.26807,-1.59497 -0.43195,-1.59497 -0.0775,0 -0.1409,-0.0979 -0.1409,-0.2175 0,-0.11962 -0.17828,-0.39578 -0.39618,-0.61368 -0.2179,-0.2179 -0.45384,-0.67366 -0.5243,-1.01281 -0.0974,-0.46871 -0.22092,-0.63854 -0.51499,-0.70796 -0.2956,-0.0698 -0.41764,-0.23942 -0.5173,-0.71909 -0.0717,-0.34527 -0.10067,-0.73742 -0.0643,-0.87144 0.0364,-0.13403 0.0744,-0.0421 0.0846,0.20435 0.0213,0.51667 0.32792,0.43178 0.356,-0.0986 0.0128,-0.24191 0.0399,-0.26891 0.0881,-0.0877 0.09,0.33838 0.70563,0.30318 1.09067,-0.0623 0.28545,-0.27099 0.28508,-0.27923 -0.013,-0.28267 -0.27548,-0.003 -0.26737,-0.034 0.079,-0.30027 0.39176,-0.30115 0.50375,-0.97129 0.2824,-1.68989 -0.0541,-0.17545 -0.19995,-0.735 -0.32423,-1.24346 -0.12428,-0.50845 -0.26055,-0.95904 -0.30282,-1.00131 -0.0423,-0.0423 -0.27227,-0.003 -0.5111,0.0882 -0.23884,0.0908 -0.48206,0.13623 -0.54049,0.10095 -0.1091,-0.0659 -0.51635,0.30158 -0.44745,0.40374 0.0211,0.0313 -0.12677,0.21579 -0.32859,0.41004 -0.31606,0.30421 -0.36726,0.31527 -0.36937,0.0797 -0.002,-0.23683 -0.0251,-0.24141 -0.17164,-0.0342 -0.12188,0.17234 -0.1911,0.18563 -0.24754,0.0475 -0.17896,-0.43792 -0.79666,-1.2397 -0.91548,-1.18831 -0.0705,0.0305 -0.3226,-0.13084 -0.56023,-0.3585 -0.31542,-0.30219 -0.47964,-0.36636 -0.60831,-0.23768 -0.12867,0.12867 -0.22792,0.0797 -0.36767,-0.181416 -0.15247,-0.284894 -0.22038,-0.312716 -0.33377,-0.136747 -0.11832,0.183623 -0.16563,0.184843 -0.28022,0.0073 -0.0799,-0.123821 -0.34255,-0.192191 -0.62467,-0.162599 -0.29259,0.03069 -0.60421,-0.05519 -0.78109,-0.215265 -0.27492,-0.248801 -0.3545,-0.248597 -1.20925,0.0031 -0.51563,0.151841 -0.91508,0.361413 -0.91525,0.480192 -1.6e-4,0.157815 -0.0633,0.147805 -0.25094,-0.03987 -0.33713,-0.337125 -0.46645,-0.316273 -0.67118,0.108235 -0.1544,0.32016 -0.17423,0.28575 -0.18386,-0.318999 -0.006,-0.372824 -0.0828,-0.677862 -0.17091,-0.677862 -0.0881,0 -0.24674,-0.323917 -0.35263,-0.719815 -0.22139,-0.827751 -0.48463,-0.855726 -0.61156,-0.06499 l -0.0876,0.54556 -0.12105,-0.502786 c -0.0666,-0.276533 -0.25012,-0.755942 -0.40787,-1.065355 -0.24251,-0.475678 -0.32114,-0.529354 -0.50911,-0.347523 -0.26032,0.251828 -0.93876,0.361321 -1.2063,0.194685 -0.21829,-0.135971 -0.69071,0.285272 -0.69071,0.615888 0,0.125318 -0.0718,0.227852 -0.1595,0.227852 -0.0877,0 -0.1595,0.179434 -0.1595,0.398742 0,0.219308 -0.0837,0.398742 -0.18608,0.398742 -0.10234,0 -0.14164,0.04443 -0.0873,0.09874 0.0543,0.0543 -0.006,0.202979 -0.13291,0.330386 -0.12741,0.127408 -0.23393,0.4239 -0.23672,0.658874 -0.003,0.234971 -0.11045,0.566551 -0.23925,0.736831 -0.23083,0.30519 -0.23417,0.30501 -0.23417,-0.0121 0,-0.17692 -0.17943,-0.49024 -0.39874,-0.696271 -0.25589,-0.240394 -0.39874,-0.297499 -0.39874,-0.159393 0,0.147383 -0.0926,0.118445 -0.29385,-0.09182 -0.21473,-0.224365 -0.29734,-0.564674 -0.30686,-1.264007 -0.007,-0.52634 -0.0173,-1.154359 -0.0226,-1.395598 -0.005,-0.241239 -0.0874,-0.438616 -0.18237,-0.438616 -0.0966,0 -0.13077,0.132368 -0.0775,0.300106 0.0601,0.189399 0.005,0.334644 -0.14875,0.393736 -0.26664,0.102317 -0.33957,0.582133 -0.0885,0.582133 0.0888,0 0.1131,0.212022 0.0566,0.494635 -0.067,0.334862 -0.0271,0.545407 0.12361,0.651822 0.16852,0.119037 0.14034,0.139382 -0.11612,0.08382 -0.26179,-0.05672 -0.32198,-0.0096 -0.26522,0.207408 0.0944,0.360852 -0.22143,0.558425 -0.50991,0.319013 -0.1879,-0.155942 -0.19766,-0.09448 -0.0626,0.394518 0.088,0.318574 0.12516,0.664674 0.0827,0.769104 -0.0425,0.10442 -0.0829,0.0326 -0.0899,-0.1596 -0.007,-0.1922 -0.0771,-0.38929 -0.15584,-0.43798 -0.0788,-0.0487 -0.19375,-0.591511 -0.25549,-1.206267 -0.0617,-0.614757 -0.1878,-1.164433 -0.28014,-1.221501 -0.10374,-0.06411 -0.12348,-0.01816 -0.0517,0.120253 0.0639,0.123208 0.005,0.0874 -0.13047,-0.07959 -0.22272,-0.274112 -0.25651,-0.277986 -0.34788,-0.03987 -0.15007,0.391078 -0.37781,0.319625 -0.30323,-0.09514 0.0626,-0.347955 0.0574,-0.349453 -0.16866,-0.04926 -0.12824,0.170282 -0.23317,0.433452 -0.23317,0.584822 0,0.151369 -0.0686,0.299141 -0.15252,0.328383 -0.0839,0.02924 -0.16936,0.34026 -0.18995,0.691153 -0.0421,0.717857 -0.46269,1.862157 -0.57119,1.554097 -0.11972,-0.33989 -0.36232,-0.0455 -0.36232,0.43962 0,0.25281 -0.0673,0.50123 -0.14945,0.55203 -0.0822,0.0508 -0.14778,0.36008 -0.14572,0.68727 0.002,0.3272 -0.10319,0.84612 -0.23387,1.15315 -0.22524,0.52922 -0.32297,1.15013 -0.28534,1.81293 0.0137,0.24223 0.0986,0.27792 0.45551,0.19149 0.24124,-0.0584 0.56453,-0.12527 0.71843,-0.14855 0.15389,-0.0233 0.37472,-0.17212 0.49072,-0.33076 0.13546,-0.18525 0.43476,-0.29567 0.83667,-0.30866 0.34416,-0.0111 0.71319,-0.12789 0.82005,-0.25947 0.14146,-0.17418 0.19568,-0.1835 0.19938,-0.0343 0.004,0.15424 0.0827,0.16343 0.3187,0.0371 0.1725,-0.0923 0.59081,-0.12353 0.92958,-0.0694 0.41579,0.0665 0.68965,0.0285 0.84272,-0.11688 0.21495,-0.20415 0.59883,-0.26372 2.45973,-0.3817 0.43861,-0.0278 1.15635,-0.0957 1.59497,-0.15091 0.43861,-0.0552 0.98497,-0.0957 1.21413,-0.0901 0.33566,0.008 0.4644,-0.10615 0.66236,-0.5887 l 0.24571,-0.59897 0.0155,0.59507 c 0.0133,0.51192 0.0768,0.60973 0.45412,0.69992 0.24124,0.0577 0.51039,0.14742 0.59811,0.19947 0.2636,0.1564 1.03673,0.15378 1.03673,-0.004 0,-0.0825 0.13472,-0.0743 0.30851,0.0187 0.16968,0.0908 0.56867,0.16511 0.88665,0.16511 0.31797,0 0.5449,0.0538 0.50428,0.11963 -0.0406,0.0658 0.10806,0.13055 0.33041,0.14392 0.22235,0.0134 0.44873,0.0851 0.50306,0.15949 0.1336,0.18284 1.13552,0.21026 1.13552,0.0311 0,-0.0784 0.17489,-0.0279 0.38865,0.11218 0.21377,0.14006 0.54607,0.23143 0.73847,0.20305 0.22138,-0.0327 0.4154,0.0655 0.52845,0.26738 0.23637,0.42207 0.42385,0.54594 0.67845,0.44824 0.11535,-0.0443 0.31296,0.0228 0.43914,0.14893 0.18485,0.18486 0.19756,0.38147 0.0654,1.01235 -0.21342,1.01899 -0.3244,1.13737 -1.34424,1.43385 -0.471,0.13692 -0.85636,0.30861 -0.85636,0.38153 0,0.0729 -0.21532,0.20764 -0.47849,0.29938 -0.26317,0.0917 -0.47849,0.23747 -0.47849,0.32385 0,0.0864 -0.15108,0.20499 -0.33572,0.26359 -0.27429,0.0871 -0.31839,0.19324 -0.24098,0.58026 0.11755,0.58778 -0.25644,1.35856 -0.77349,1.59414 -0.3155,0.14375 -0.36402,0.25747 -0.29401,0.68895 0.10144,0.62509 -0.17359,1.19852 -0.57484,1.19852 -0.50029,0 -0.68475,0.38981 -0.56436,1.19262 0.0605,0.40373 0.0477,0.72269 -0.0286,0.70881 -0.29736,-0.0541 -0.53558,0.019 -0.49755,0.15281 0.0515,0.18104 -0.78903,0.97137 -0.90727,0.85313 -0.0493,-0.0493 -0.0896,-0.002 -0.0896,0.1059 0,0.10752 -0.0595,0.1587 -0.13227,0.11374 -0.0727,-0.045 -0.48043,0.023 -0.90596,0.1511 -0.86983,0.26178 -2.46795,0.2463 -2.46962,-0.0239 -6.3e-4,-0.0962 0.16041,-0.25737 0.35779,-0.35804 0.29891,-0.15247 0.20565,-0.17123 -0.55824,-0.1123 -1.01749,0.0785 -1.13225,-0.0246 -0.47849,-0.42995 0.40896,-0.25356 0.41499,-0.27223 0.0892,-0.27619 -0.47507,-0.006 -0.64038,-0.32365 -0.22483,-0.43232 0.37058,-0.0969 0.46402,-0.52891 0.1144,-0.52891 -0.12136,0 -0.25818,-0.14354 -0.30407,-0.31899 -0.11052,-0.42263 -0.43227,-0.40993 -0.43227,0.0171 0,0.24088 -0.0714,0.30864 -0.25224,0.23926 -0.13874,-0.0532 -0.98208,-0.13928 -1.87409,-0.19122 -2.51304,-0.14632 -2.72145,-0.17395 -2.78664,-0.36953 -0.0397,-0.11914 -0.25668,-0.14627 -0.62191,-0.0778 l -0.56091,0.10523 0.27504,-0.41977 c 0.15127,-0.23087 0.21296,-0.42795 0.13708,-0.43795 -0.0759,-0.01 -0.34365,-0.0422 -0.59503,-0.0716 -0.57971,-0.0678 -0.61659,-0.11009 -0.49598,-0.56924 0.10226,-0.38934 1.18769,-1.25493 1.57363,-1.25493 0.11967,0 0.30628,-0.10687 0.41468,-0.23749 0.10841,-0.13061 0.26074,-0.19815 0.33853,-0.15008 0.0778,0.0481 0.14142,0.0177 0.14142,-0.0675 0,-0.0852 0.30504,-0.20543 0.67786,-0.26718 0.37283,-0.0618 0.78552,-0.16765 0.91711,-0.23529 0.13158,-0.0677 0.54533,-0.16501 0.91944,-0.21636 0.87096,-0.11955 1.31351,-0.35929 1.31351,-0.71157 0,-0.22419 -0.11796,-0.2706 -0.59811,-0.23532 -1.91413,0.14065 -3.86927,0.12172 -3.80841,-0.0369 0.0832,-0.21683 -0.78843,-0.61492 -1.02554,-0.46838 -0.19909,0.12305 -1.86989,0.5382 -2.20097,0.54689 -0.1257,0.003 -0.17877,-0.0925 -0.12659,-0.22845 0.0494,-0.12878 0.0211,-0.27664 -0.063,-0.32859 -0.0841,-0.052 -0.22123,0.0854 -0.30482,0.3053 -0.10918,0.28717 -0.31394,0.43014 -0.727,0.50764 -0.38541,0.0723 -0.54824,0.17763 -0.49382,0.31945 0.05,0.13023 -0.002,0.1796 -0.13553,0.12841 -0.25653,-0.0984 -0.31276,0.0662 -0.63316,1.85387 -0.45439,2.53526 -0.53333,3.50225 -0.79428,9.72931 -0.0661,1.57658 0.42904,4.099692 1.49769,7.632272 1.46143,4.830993 1.943,6.762633 1.73442,6.957043 -0.12153,0.11328 -0.19784,0.10514 -0.24623,-0.0263 -0.0386,-0.10473 -0.17314,-0.15088 -0.29905,-0.10256 -0.12592,0.0483 -0.22895,0.0102 -0.22895,-0.0847 0,-0.10668 -0.18269,-0.13604 -0.47849,-0.0769 -0.40954,0.0819 -0.47849,0.0477 -0.47849,-0.23762 0,-0.18332 -0.14354,-0.41014 -0.31899,-0.50404 -0.18654,-0.0998 -0.31899,-0.33395 -0.31899,-0.56385 0,-0.21622 -0.0539,-0.39313 -0.1199,-0.39313 -0.0659,0 -0.29124,-0.32298 -0.50065,-0.71773 -0.26806,-0.5053 -0.48087,-0.71774 -0.71897,-0.71774 -0.38192,0 -0.80355,-0.55582 -0.63208,-0.83326 0.0743,-0.12028 0.15375,-0.0774 0.23343,0.12611 0.10137,0.25884 0.12258,0.23792 0.13199,-0.13021 0.006,-0.24124 -0.0592,-0.43861 -0.14525,-0.43861 -0.0861,0 -0.1985,-0.19738 -0.24989,-0.43862 -0.30457,-1.42975 -0.75548,-3.194493 -0.8864,-3.469063 -0.0836,-0.17544 -0.25421,-0.67786 -0.37902,-1.11647 -0.45904,-1.613232 -0.93591,-2.880722 -1.22325,-3.251332 -0.16221,-0.2092 -0.29492,-0.47835 -0.29492,-0.59811 0,-0.11975 -0.0718,-0.21773 -0.1595,-0.21773 -0.0877,0 -0.15949,-0.13931 -0.15949,-0.30958 0,-0.17027 -0.0718,-0.35394 -0.1595,-0.40816 -0.0877,-0.0542 -0.1595,-0.23789 -0.1595,-0.40816 0,-0.17026 -0.10766,-0.30958 -0.23924,-0.30958 -0.13159,0 -0.23925,-0.1 -0.23925,-0.22218 0,-0.1222 -0.11075,-0.26468 -0.24612,-0.31662 -0.20655,-0.0793 -0.21387,-0.15254 -0.0455,-0.45568 0.35342,-0.63645 0.24761,-3.38302 -0.17566,-4.55923 -0.36959,-1.02708 -0.41119,-1.49918 -0.55066,-6.24905 -0.0687,-2.34058 -0.24099,-3.86892 -0.45138,-4.00443 -0.0833,-0.0537 -0.15265,-1.23968 -0.1557,-2.66385 -0.005,-2.28308 0.0295,-2.62528 0.31099,-3.093174 0.28911,-0.480607 0.67972,-1.90819 0.90766,-3.31729 0.0497,-0.307031 0.25857,-0.919475 0.46423,-1.360985 0.30877,-0.662891 0.3772,-1.084159 0.39276,-2.417994 0.0171,-1.462406 0.28992,-2.941494 0.75682,-4.102404 0.0934,-0.232153 0.0716,-0.273646 -0.0909,-0.173208 -0.15818,0.09776 -0.18595,0.05973 -0.10686,-0.146376 0.0588,-0.153151 0.10686,-0.439057 0.10686,-0.635346 0,-0.297028 0.73851,-1.472708 1.43886,-2.290605 0.0948,-0.110761 0.13367,-0.264118 0.0863,-0.340795 -0.0474,-0.07668 0.0207,-0.228106 0.15133,-0.336511 0.13062,-0.108404 0.23749,-0.303585 0.23749,-0.433736 0,-0.130151 0.19737,-0.498174 0.43861,-0.817829 0.64271,-0.851628 0.99686,-1.540378 0.99686,-1.938713 0,-0.272037 -0.063,-0.325391 -0.27912,-0.236416 -0.15352,0.0632 -0.42267,0.15302 -0.59811,0.199599 -0.17545,0.04658 -0.39077,0.137808 -0.4785,0.202732 -0.0877,0.06492 -0.39276,0.16792 -0.67786,0.228881 -0.63777,0.136371 -0.6987,-0.137888 -0.0797,-0.358941 0.37353,-0.133399 1.78111,-1.233291 5.10471,-3.988843 0.37327,-0.309471 0.64723,-0.594116 0.6088,-0.632545 -0.0384,-0.03843 -0.30794,0.003 -0.59892,0.09202 -0.80916,0.247604 -2.67024,0.393786 -2.32213,0.182396 0.15421,-0.09364 0.35159,-0.126255 0.43862,-0.07247 0.087,0.05379 0.15823,0.02771 0.15823,-0.05795 0,-0.08566 0.37681,-0.376694 0.83736,-0.646743 0.47185,-0.276676 0.69812,-0.480254 0.51836,-0.466384 -0.59897,0.04622 -1.03672,-0.02577 -1.03672,-0.170494 0,-0.07951 0.1429,-0.107194 0.31757,-0.06152 0.36022,0.0942 1.94805,-0.598591 1.62815,-0.710384 -0.34049,-0.118988 0.91425,-0.634646 2.24442,-0.92239 0.82941,-0.179416 1.28973,-0.362038 1.39139,-0.552007 0.0836,-0.15614 0.31532,-0.326379 0.51501,-0.378308 0.45868,-0.119278 1.43564,-1.031242 1.31458,-1.227125 -0.05,-0.08083 0.0206,-0.104225 0.15669,-0.05198 0.13614,0.05224 0.24753,0.01806 0.24753,-0.07596 0,-0.204456 -0.59381,-0.547296 -0.76485,-0.441589 -0.0661,0.04088 -0.3697,0.01566 -0.67456,-0.05605 -0.30487,-0.07171 -0.4164,-0.137722 -0.24786,-0.146702 0.16853,-0.009 0.4386,-0.135934 0.60013,-0.282121 0.28147,-0.254729 0.26256,-0.28793 -0.45413,-0.797484 -0.41131,-0.29243 -0.90951,-0.531689 -1.10711,-0.531689 -0.1976,0 -0.48089,-0.121618 -0.62954,-0.270263 -0.14864,-0.148643 -0.63824,-0.447194 -1.08799,-0.663446 -0.59579,-0.286469 -0.73738,-0.411981 -0.52168,-0.462433 0.16284,-0.03808 0.37457,0.0093 0.47052,0.105209 0.096,0.09595 0.42503,0.174455 0.73128,0.174455 0.52384,0 0.53849,-0.01388 0.24722,-0.234174 -0.41368,-0.312894 0.0413,-0.338308 0.49226,-0.0275 0.17304,0.119251 0.70937,0.307626 1.19185,0.418613 0.48247,0.110988 1.07337,0.260463 1.3131,0.332167 0.328,0.09811 0.47056,0.06839 0.57604,-0.120103 0.0889,-0.158787 0.17823,-0.188894 0.24414,-0.08224 0.0684,0.110654 0.27488,0.119212 0.60334,0.02501 0.27466,-0.07877 0.73138,-0.106346 1.01494,-0.06128 0.37216,0.05915 0.54184,0.01348 0.61001,-0.16417 0.0753,-0.196163 0.27346,-0.228544 0.97662,-0.159562 0.65894,0.06464 0.8825,0.03441 0.88343,-0.119477 0.003,-0.445408 2.04422,-1.056737 3.31153,-0.991626 0.55471,0.0285 0.67308,-0.01375 0.63799,-0.227689 -0.0276,-0.167992 0.0863,-0.281055 0.31577,-0.313649 0.24588,-0.03492 0.35964,-0.160469 0.36131,-0.398743 0.002,-0.257847 0.0382,-0.291405 0.14055,-0.129779 0.11425,0.18035 0.24334,0.183264 0.7475,0.01687 0.45095,-0.148827 0.62522,-0.153669 0.67023,-0.01863 0.0335,0.100373 0.13431,0.182497 0.22411,0.182497 0.0898,0 0.12195,-0.107661 0.0715,-0.239246 -0.11155,-0.2907 0.53389,-0.337225 0.81254,-0.05857 0.10646,0.106461 0.29973,0.129023 0.47052,0.05493 0.35836,-0.155473 1.09412,-0.240673 2.44305,-0.282899 0.80078,-0.02507 1.03672,-0.0869 1.03672,-0.271699 0,-0.131584 -0.16149,-0.26218 -0.35886,-0.290212 -0.41843,-0.05943 -0.49412,-0.381583 -0.0798,-0.339433 0.70765,0.07198 0.69964,-0.05079 -0.0333,-0.510901 -0.43502,-0.273072 -1.11553,-0.607097 -1.51226,-0.742275 -0.39672,-0.135177 -0.63293,-0.275239 -0.52491,-0.311247 0.42651,-0.142171 0.15591,-0.495442 -0.64095,-0.83675 -0.46055,-0.197259 -0.89009,-0.439361 -0.95454,-0.538005 -0.20169,-0.308704 -0.1333,-0.457221 0.15706,-0.34105 0.15351,0.06142 0.64693,0.20939 1.09647,0.328822 0.44955,0.119429 1.23906,0.471424 1.75447,0.78221 0.51541,0.310786 1.00416,0.565251 1.08612,0.565476 0.082,1.59e-4 0.44083,0.135913 0.79749,0.30153 0.69201,0.321338 1.64504,0.655861 1.86849,0.655861 0.0746,0 0.1357,-0.0714 0.1357,-0.158681 0,-0.134837 -0.67601,-0.500954 -1.59497,-0.86381 -0.13158,-0.05196 0.0478,-0.05266 0.39874,-0.0016 0.3509,0.0511 0.78154,0.22167 0.95698,0.379052 0.45102,0.404575 1.01758,0.675668 1.18972,0.569274 0.0805,-0.04976 0.20464,0.01174 0.27583,0.136668 0.0712,0.124933 0.48492,0.415601 0.91942,0.645932 0.4345,0.230331 0.90103,0.516347 1.03673,0.635592 0.33437,0.293819 1.55988,0.828264 2.22451,0.970111 0.43632,0.09312 0.52511,0.07091 0.4543,-0.113626 -0.11649,-0.303552 0.49594,-0.265562 0.73952,0.04587 0.0978,0.125056 0.46493,0.418437 0.81582,0.651954 0.52536,0.349622 0.7647,0.4107 1.35573,0.345973 2.35374,-0.257773 2.71144,-0.25667 2.71144,0.0084 0,0.148882 0.13082,0.257826 0.30958,0.257826 0.17027,0 0.34935,0.06434 0.39795,0.142978 0.0486,0.07864 0.39376,0.299634 0.76702,0.491102 0.37326,0.191469 0.93091,0.547568 1.23921,0.791334 0.3083,0.243765 0.73895,0.498592 0.95698,0.566282 0.78029,0.242247 1.84256,0.861813 2.46556,1.438038 0.58688,0.542838 2.95027,1.833689 3.35721,1.833689 0.19389,0 0.79199,0.631842 0.89738,0.948005 0.036,0.107891 0.44811,0.330948 0.91588,0.495679 1.35991,0.478909 2.25046,0.958736 2.25046,1.21254 0,0.129422 0.20675,0.40928 0.45944,0.621905 0.25269,0.212625 0.57904,0.638633 0.72522,0.946684 0.14618,0.308051 0.32626,0.560092 0.40017,0.560092 0.0739,0 0.56942,0.43639 1.10114,0.969756 0.81311,0.815646 0.98415,1.085784 1.07624,1.69988 0.0602,0.40157 0.27907,0.980025 0.48634,1.285459 0.20728,0.305431 0.37686,0.657213 0.37686,0.781732 0,0.124521 0.0598,0.189454 0.13286,0.144294 0.1424,-0.08801 1.07434,0.493333 1.86958,1.166239 0.26796,0.226744 0.71162,0.580715 0.98591,0.7866 0.30326,0.227636 0.46383,0.465216 0.40971,0.606228 -0.0489,0.12754 0.0491,0.389731 0.21789,0.582644 0.16877,0.192915 0.41112,0.489794 0.53854,0.659735 0.20886,0.278551 0.20419,0.29868 -0.0474,0.204377 -0.15352,-0.05753 -0.27912,-0.03992 -0.27912,0.03914 0,0.07906 0.14459,0.189633 0.32131,0.245722 0.17672,0.05609 0.27681,0.173984 0.22242,0.261988 -0.11654,0.188556 -0.86273,-0.461825 -0.86273,-0.751953 0,-0.106907 -0.11221,-0.237436 -0.24935,-0.290064 -0.13715,-0.05263 -0.21365,-0.15345 -0.17002,-0.22405 0.0436,-0.0706 0.0134,-0.232599 -0.0672,-0.359995 -0.10055,-0.15895 -0.1473,-0.169072 -0.14897,-0.03226 -0.001,0.109654 -0.10243,0.199371 -0.22462,0.199371 -0.45472,0 -0.42208,0.504148 0.0619,0.956264 0.26359,0.246232 0.47926,0.515434 0.47926,0.598227 0,0.08279 0.13871,0.276062 0.30824,0.429485 0.16953,0.153423 0.27306,0.370613 0.23007,0.482645 -0.043,0.112031 0.0205,0.302665 0.141,0.42363 0.12054,0.120966 0.34825,0.417314 0.50601,0.658553 0.15776,0.241239 0.35988,0.438617 0.44916,0.438617 0.0893,0 0.2784,0.128133 0.42027,0.284741 0.14188,0.156607 0.6007,0.561501 1.01962,0.899765 0.41891,0.338263 0.72004,0.656636 0.66918,0.707495 -0.0508,0.05086 -0.15644,-0.01104 -0.23462,-0.137536 -0.0782,-0.126503 -0.1824,-0.189763 -0.23158,-0.140574 -0.0787,0.07866 0.0562,0.279067 0.70711,1.050948 0.0893,0.105953 0.16246,0.271679 0.16246,0.368282 0,0.0966 0.0718,0.131283 0.15949,0.07707 0.0877,-0.05422 0.1595,0.04921 0.1595,0.229832 0,0.180624 0.0669,0.328407 0.14875,0.328407 0.0818,0 0.19431,0.143547 0.24999,0.318994 0.0557,0.175446 0.19651,0.318993 0.31295,0.318993 0.15679,0 0.18117,0.13538 0.094,0.521912 -0.10867,0.48182 -0.0657,1.108159 0.22158,3.226264 l 0.10815,0.797484 -0.32066,-0.677861 c -0.33508,-0.708334 -0.59523,-0.923543 -0.40967,-0.338894 0.0724,0.228103 0.0498,0.303272 -0.069,0.229832 -0.0971,-0.06002 -0.17658,-0.03911 -0.17658,0.04648 0,0.08559 0.0816,0.182806 0.18124,0.216034 0.0997,0.03323 0.18062,0.380134 0.17984,0.770901 -8e-4,0.390767 0.0717,0.757072 0.16099,0.814013 0.0904,0.05762 0.10915,0.234415 0.0423,0.398742 -0.11573,0.284461 -0.12407,0.284617 -0.22884,0.0043 -0.0598,-0.160007 -0.17476,-0.303554 -0.25546,-0.318993 -0.21606,-0.04134 -0.37877,0.945296 -0.25312,1.534806 0.0599,0.28082 0.06,0.7259 3.2e-4,0.98907 l -0.10851,0.47849 -0.0245,-0.47849 c -0.0135,-0.26317 -0.1271,-0.65793 -0.25247,-0.87723 -0.2021,-0.35354 -0.22831,-0.36258 -0.23123,-0.0798 -0.002,0.17544 0.10864,0.78552 0.24546,1.35572 0.31019,1.29277 0.4173,8.13441 0.12735,8.13437 -0.2493,-4e-5 -0.39897,1.54743 -0.22365,2.31253 0.091,0.39698 0.0889,0.69512 -0.006,0.78951 -0.0834,0.0834 -0.15621,0.5859 -0.16177,1.11662 -0.008,0.76997 -0.0405,0.88907 -0.16052,0.58942 -0.10053,-0.251 -0.23375,-0.34356 -0.40168,-0.27912 -0.1382,0.053 -0.28128,0.0964 -0.31797,0.0964 -0.13313,0 -0.0628,0.94054 0.0767,1.02681 0.0789,0.0487 0.29963,0.35337 0.49053,0.67692 0.29588,0.50147 0.30413,0.5545 0.0559,0.35937 -0.16014,-0.12589 -0.39625,-0.37063 -0.52469,-0.54386 -0.22334,-0.30124 -0.23874,-0.2908 -0.35318,0.23924 -0.0658,0.30482 -0.0758,1.11329 -0.0221,1.79661 0.0931,1.18606 -0.13497,2.50579 -0.43303,2.50579 -0.13619,0 -0.33434,1.05776 -0.39985,2.13445 -0.0261,0.4283 -0.14664,0.87798 -0.26794,0.99929 -0.18775,0.18775 -0.21083,0.13715 -0.15511,-0.34011 0.036,-0.30871 -0.006,-0.56068 -0.0929,-0.56068 -0.26572,0 -0.32378,0.77113 -0.0838,1.11369 0.12418,0.17729 0.17676,0.40166 0.11685,0.49859 -0.0761,0.123152 -0.14835,0.112442 -0.23981,-0.0355 -0.072,-0.11648 -0.18091,-0.16177 -0.24204,-0.10064 -0.0611,0.0611 -0.0231,0.21726 0.0845,0.346962 0.10764,0.12969 0.32431,0.48807 0.48151,0.7964 l 0.28581,0.5606 -0.33916,-0.17844 c -0.18653,-0.0981 -0.39331,-0.25741 -0.45951,-0.35393 -0.13949,-0.20341 -1.45839,1.17623 -1.76705,1.84843 -0.18771,0.4088 -0.61642,0.9018 -1.70743,1.963503 -0.59072,0.57485 -0.87288,1.08621 -1.01207,1.83421 -0.0919,0.49369 -1.05523,2.16475 -1.05523,1.83041 0,-0.25119 -0.77291,0.59614 -0.96351,1.05629 -0.10542,0.2545 -0.25194,0.46273 -0.3256,0.46273 -0.0737,0 -0.27641,0.15293 -0.45055,0.33985 -0.1932,0.20737 -0.43642,0.30851 -0.62398,0.25946 -0.24598,-0.0643 -0.29272,-0.0127 -0.234,0.25827 0.0531,0.24537 0.0317,0.28005 -0.0778,0.12591 -0.12282,-0.17289 -0.16929,-0.16542 -0.24807,0.0399 -0.0533,0.13894 -0.0454,0.25267 0.0177,0.25273 0.063,6e-5 0.12463,0.1742 0.13688,0.38698 0.0169,0.29397 -0.0405,0.36491 -0.23924,0.29541 -0.19588,-0.0685 -0.21766,-0.0437 -0.0868,0.0988 0.20171,0.21959 0.11583,1.50532 -0.10583,1.58461 -0.0817,0.0292 -0.14864,0.15784 -0.14864,0.28579 0,0.12794 -0.13553,0.3781 -0.30119,0.55591 -0.1823,0.19567 -0.26731,0.45285 -0.21537,0.65149 0.0543,0.20749 -0.0109,0.38236 -0.1773,0.47545 -0.15361,0.086 -0.26312,0.34707 -0.26312,0.62739 0,0.44392 0.0361,0.47446 0.47849,0.40473 0.29557,-0.0466 0.48524,-0.005 0.49615,0.11005 0.0453,0.4756 -0.0635,1.01399 -0.26986,1.3362 -0.12446,0.19429 -0.22673,0.4455 -0.22727,0.55824 -4.8e-4,0.11274 -0.10946,0.41299 -0.24204,0.66722 -0.30801,0.59062 -0.71366,2.52589 -0.71383,3.40556 -7e-5,0.37282 -0.0719,0.67786 -0.15963,0.67786 -0.0877,0 -0.1595,0.10766 -0.1595,0.23925 0,0.13158 -0.0989,0.23924 -0.21971,0.23924 -0.12085,0 -0.31822,0.12144 -0.43862,0.26986 -0.14874,0.18337 -0.155,0.23148 -0.0195,0.15009 0.13333,-0.0801 0.19937,-0.0127 0.19937,0.20362 0,0.22194 -0.0751,0.2946 -0.23924,0.2316 -0.13776,-0.0529 -0.24543,0 -0.25382,0.12462 -0.008,0.11904 -0.0391,0.71885 -0.0692,1.33292 -0.03,0.61406 -0.12469,1.34476 -0.21037,1.62379 -0.0878,0.28594 -0.10053,0.75223 -0.0292,1.06861 0.0696,0.30872 0.0945,0.59338 0.0553,0.63257 -0.26853,0.26853 -0.30115,6.44408 -0.0463,8.76035 0.17073,1.55151 0.32728,2.03015 0.66401,2.03015 0.0832,0 0.49036,0.28595 0.90484,0.63545 0.96181,0.81101 1.49755,0.9132 2.96989,0.56647 0.98771,-0.2326 1.27254,-0.24521 1.77725,-0.0786 0.62676,0.20685 1.74995,0.83197 2.84626,1.58412 0.35312,0.24227 1.158,0.69984 1.7886,1.01682 0.63061,0.31699 1.45601,0.87308 1.83422,1.23575 0.9112,0.87378 1.14861,1.01802 2.31746,1.40799 0.73335,0.24467 1.39841,0.33094 2.55195,0.33103 1.38661,1.1e-4 1.66657,0.0508 2.51711,0.45602 0.52634,0.25074 1.09371,0.60955 1.26082,0.79735 0.26735,0.30047 0.47374,0.34147 1.71882,0.34147 2.42889,0 4.99206,0.8355 6.2226,2.02835 0.57994,0.56216 0.6056,0.56983 1.59497,0.47659 0.55306,-0.0521 1.65152,-0.31939 2.44103,-0.59392 1.97483,-0.68669 2.44779,-0.73535 3.23655,-0.33295 0.35721,0.18223 0.69108,0.39865 0.74192,0.48092 0.14575,0.23583 1.49654,0.63174 2.75704,0.80807 0.67294,0.0941 1.80203,0.43258 2.71144,0.81276 0.85708,0.35829 1.78083,0.71802 2.05278,0.79941 0.27195,0.0814 0.624,0.29112 0.78233,0.46607 0.17635,0.19486 0.49093,0.3181 0.81199,0.3181 0.28825,0 0.57302,0.0791 0.63281,0.17589 0.17801,0.28804 1.70779,0.93735 2.21234,0.93903 0.77728,0.003 1.72257,0.58135 2.3215,1.42133 0.4829,0.67728 0.66754,0.80718 1.39559,0.98183 l 0.83905,0.20129 v 30.03968 30.03969 h -26.21641 -26.21668 l -0.10188,-0.768 c -0.13918,-1.04914 -0.80222,-2.02365 -1.64708,-2.42078 -0.8616,-0.40499 -1.36839,-0.40365 -2.21438,0.006 -0.65625,0.31769 -1.18166,1.05219 -1.18166,1.6519 0,0.39558 0.93835,0.32813 1.39431,-0.10023 0.26249,-0.2466 0.57568,-0.35523 1.02406,-0.35523 0.82111,0 1.40955,0.60457 1.40955,1.4482 0,0.48997 -0.0451,0.55403 -0.35886,0.50948 -0.23646,-0.0336 -0.37704,-0.17936 -0.41213,-0.42733 -0.0523,-0.36931 -0.0761,-0.3743 -1.27598,-0.26683 -1.59416,0.14281 -1.94045,0.23221 -1.94045,0.50098 0,0.16206 -0.23121,0.22195 -0.85694,0.22195 h -0.85694 l -0.0798,-0.83061 c -0.0439,-0.45685 -0.16368,-0.85857 -0.26619,-0.89275 -0.13507,-0.045 -0.13874,-0.11953 -0.0134,-0.2706 0.29032,-0.34981 0.0208,-1.03648 -0.40683,-1.03648 -0.20462,0 -0.41892,0.0759 -0.47621,0.16856 -0.17895,0.28955 0.0749,0.94763 0.3675,0.95277 0.25853,0.004 0.25884,0.0148 0.005,0.16299 -0.22013,0.12836 -0.25348,0.30764 -0.17715,0.95213 l 0.094,0.79399 h -1.29318 c -0.96072,0 -1.27752,-0.0513 -1.23225,-0.19937 0.0335,-0.10965 0.10125,-0.43263 0.15051,-0.71773 0.0843,-0.48811 0.062,-0.51837 -0.38191,-0.51837 -0.38433,0 -0.4895,0.0811 -0.56907,0.43862 -0.21071,0.9468 -0.24521,0.99685 -0.68716,0.99685 -0.34524,0 -0.49569,-0.12056 -0.7092,-0.56829 -0.22662,-0.47523 -0.32939,-0.55034 -0.62765,-0.45868 -0.49811,0.15309 -0.51068,0.17885 -0.30624,0.62756 l 0.18199,0.39941 h -2.30604 -2.30605 l -0.34366,-0.67786 c -0.18901,-0.37282 -0.38785,-0.71375 -0.44186,-0.75761 -0.054,-0.0439 -0.12489,-0.18741 -0.15751,-0.31899 -0.0326,-0.13159 -0.097,-0.37302 -0.14298,-0.53653 -0.067,-0.23828 -0.0205,-0.27723 0.23453,-0.1963 0.79899,0.2536 1.95911,-1.03982 1.96066,-2.18592 8e-4,-0.60709 -0.36689,-1.52417 -0.6993,-1.7441 -0.34514,-0.22835 -1.2132,-0.12271 -1.521,0.1851 -0.18621,0.1862 -0.43373,0.27405 -0.62859,0.2231 -0.28524,-0.0746 -0.32698,0.003 -0.37071,0.6897 l -0.0493,0.77374 -1.3956,-2.77597 c -0.76758,-1.52676 -1.3956,-2.87252 -1.3956,-2.99056 0,-0.13211 -0.18391,-0.21461 -0.47849,-0.21461 -0.64118,0 -0.61718,0.22024 0.18687,1.71432 0.73482,1.36546 0.7431,1.70362 0.0605,2.47091 -0.34408,0.38675 -0.5299,0.4461 -1.61431,0.51564 -0.67401,0.0432 -1.3163,0.15398 -1.42731,0.2461 -0.50065,0.41551 -0.59884,1.07114 -0.41766,2.78887 0.15534,1.47276 0.14455,1.74116 -0.0898,2.23249 l -0.26631,0.55847 h -42.71562 -42.71562 z m 78.89845,20.11455 -0.0273,-1.15636 -0.55824,0.0554 c -0.6834,0.0677 -0.81998,0.26001 -0.6972,0.98138 0.13661,0.80266 0.48067,1.27598 0.9275,1.27598 0.37094,0 0.38163,-0.0348 0.35519,-1.15635 z m 43.81579,0.77565 c 0.29117,-0.12165 0.68362,-0.43777 0.87211,-0.70248 0.72438,-1.0173 0.26008,-2.87392 -0.87102,-3.48306 -0.51979,-0.27993 -0.54853,-0.27845 -1.2541,0.0644 -0.64625,0.31396 -0.99106,0.83346 -0.5532,0.83346 0.0929,0 0.12648,0.0686 0.0746,0.15253 -0.0519,0.0839 -0.21523,0.10611 -0.36306,0.0494 -0.2381,-0.0914 -0.24207,-0.0742 -0.0348,0.15 0.21355,0.23101 0.24713,0.23017 0.38389,-0.01 0.0824,-0.14446 0.13474,-0.28203 0.11626,-0.30568 -0.0185,-0.0237 0.0558,-0.13876 0.16519,-0.2558 0.16525,-0.1769 0.27835,-0.16835 0.6705,0.0507 0.25944,0.14494 0.49648,0.33782 0.52674,0.4286 0.0571,0.17138 -1.15866,0.62177 -1.50893,0.55898 -0.1185,-0.0213 -0.19937,0.1364 -0.19937,0.38858 0,0.42267 0.004,0.42405 1.03672,0.35829 1.13774,-0.0724 1.35831,0.12979 0.64869,0.59475 -0.30498,0.19983 -0.45991,0.2158 -0.72376,0.0746 -0.34633,-0.18535 -0.96165,-0.0859 -0.96165,0.15551 0,0.28983 0.84131,1.11796 1.13577,1.11796 0.17047,0 0.54818,-0.0995 0.83935,-0.22121 z m -39.23182,-0.58852 c 0.5468,-0.64983 0.56842,-1.42323 0.0398,-1.42323 -0.24627,0 -0.43685,0.13983 -0.56053,0.41126 -0.10306,0.22621 -0.27158,0.38321 -0.3745,0.3489 -0.3866,-0.12886 -0.28428,-0.43064 0.34267,-1.01072 0.52626,-0.48691 0.64651,-0.70547 0.64651,-1.17504 0,-0.82801 -0.37236,-1.28585 -1.04577,-1.28585 -0.68706,0 -1.18719,0.47034 -1.18719,1.11648 0,0.57119 0.32249,0.63259 0.77444,0.14748 0.21048,-0.22592 0.344,-0.27336 0.42059,-0.14943 0.0647,0.10471 -0.16448,0.43702 -0.5414,0.785 -0.71128,0.65665 -0.78572,0.98451 -0.42147,1.85629 0.39418,0.9434 1.28321,1.12005 1.90687,0.37886 z m 44.68896,-0.42882 c 0.21504,-0.14386 0.34283,-0.92762 0.48121,-2.95134 0.10025,-1.46621 0.089,-1.552 -0.20335,-1.552 -0.50913,0 -0.69213,0.33401 -0.69471,1.268 -0.004,1.57691 -0.20416,1.585 -1.05045,0.0426 -0.38741,-0.70609 -0.52672,-0.83532 -0.8597,-0.79748 -0.21856,0.0248 -0.41594,0.1528 -0.43862,0.28438 -0.0227,0.13159 0.42094,0.95698 0.98582,1.83421 1.36083,2.11327 1.3833,2.13691 1.7798,1.87165 z m 5.91542,-1.14597 c 0.66809,-0.40737 0.88434,-0.84535 0.88434,-1.79105 0,-0.57787 -0.1065,-0.93202 -0.41352,-1.37504 -0.76189,-1.09941 -1.65805,-1.38973 -2.72269,-0.88203 -0.93391,0.44534 -1.38435,1.94887 -0.76839,2.56483 0.15351,0.15352 0.28629,0.36884 0.29507,0.47849 0.009,0.10966 0.0267,0.26857 0.0399,0.35311 0.0462,0.29699 1.21962,0.96274 1.69579,0.96215 0.26474,0 0.71002,-0.14004 0.98953,-0.31046 z m -1.50323,-0.98071 c -0.60352,-0.22327 -0.5194,-0.41945 0.22349,-0.52127 1.14313,-0.15669 1.20493,-0.14468 1.02124,0.19854 -0.18533,0.3463 -0.77072,0.49808 -1.24473,0.32273 z m -0.67968,-1.65483 c 0,-0.0416 0.19738,-0.17651 0.43862,-0.29979 0.47044,-0.24041 1.26129,-0.0829 1.07744,0.21459 -0.0967,0.15648 -1.51606,0.23623 -1.51606,0.0852 z m -31.88839,1.3263 c 1.37508,-0.77285 1.47151,-3.07547 0.16121,-3.84948 -0.25336,-0.14967 -0.72717,-0.27211 -1.05292,-0.27211 -0.47532,0 -0.71453,0.12227 -1.21149,0.61923 -0.56197,0.56195 -0.61922,0.6966 -0.61922,1.4562 v 0.837 l 0.67786,-0.0933 c 0.37282,-0.0513 0.9829,-0.14187 1.35572,-0.20123 0.53209,-0.0847 0.67787,-0.0588 0.67787,0.12042 0,0.58393 -0.62186,0.75297 -1.54367,0.41963 -0.95644,-0.34583 -1.15571,0.46648 -0.25188,1.02683 0.59045,0.36606 1.07283,0.3492 1.80652,-0.0632 z m -1.60594,-2.56892 c 0,-0.40887 1.1368,-0.63092 1.36228,-0.26609 0.14641,0.2369 0.074,0.27899 -0.69041,0.40121 -0.54207,0.0867 -0.67187,0.0606 -0.67187,-0.13512 z m 6.63299,0.72016 c -0.17273,-2.19666 -0.25654,-2.57141 -0.59943,-2.68025 -0.16884,-0.0536 -0.39699,-0.0227 -0.507,0.0686 -0.11001,0.0913 -0.34967,0.12686 -0.53259,0.079 -0.18291,-0.0478 -0.38331,-0.005 -0.44533,0.0955 -0.16493,0.26687 0.0477,0.96181 0.29433,0.96181 0.40982,0 0.70022,0.56931 0.81077,1.58942 0.13446,1.24074 0.15603,1.28152 0.67773,1.28152 h 0.41126 z m 4.53179,0.70236 0.87723,-0.184 -0.0439,-0.87723 c -0.0536,-1.07003 -0.49221,-4.14158 -0.62128,-4.35044 -0.12189,-0.1972 -1.50033,-0.0123 -2.30327,0.30898 -0.99856,0.39956 -1.33898,1.02456 -1.33252,2.44649 0.006,1.41633 0.3509,2.16019 1.20007,2.59157 0.62149,0.31572 0.9772,0.32606 2.22368,0.0646 z m -1.71795,-1.00137 c -0.60646,-0.26529 -0.88681,-1.91873 -0.43477,-2.56412 0.24018,-0.3429 1.29798,-0.7961 1.466,-0.62807 0.0989,0.0989 0.55296,3.00027 0.48078,3.07244 -0.10451,0.10452 -1.32574,0.20124 -1.51201,0.11975 z m 9.85623,-0.46899 c 0.0856,-0.22501 0.15555,-0.6873 0.15555,-1.02732 0,-0.75501 0.25198,-0.9586 0.50342,-0.40676 0.10217,0.22425 0.25026,0.40774 0.32908,0.40774 0.0788,0 0.0995,0.0709 0.0459,0.15766 -0.0556,0.09 0.007,0.11741 0.14699,0.0639 0.23232,-0.0891 0.30197,-0.85953 0.0777,-0.85953 -0.0568,0 -0.30108,-0.54216 -0.54276,-1.20479 -0.37578,-1.03032 -0.48858,-1.19777 -0.77897,-1.15635 -0.28498,0.0406 -0.36727,0.21511 -0.51188,1.08517 l -0.17231,1.03672 -0.44665,-0.99685 c -0.24566,-0.54827 -0.53906,-0.99686 -0.652,-0.99686 -0.33109,0 -0.70993,0.18172 -0.70993,0.34051 0,0.18634 1.57626,3.49944 1.79199,3.76654 0.26031,0.32229 0.59674,0.22991 0.7639,-0.20976 z m 18.60332,-0.90672 c -0.0442,-0.10965 -0.0805,-0.0199 -0.0805,0.19937 0,0.21931 0.0362,0.30903 0.0805,0.19937 0.0443,-0.10965 0.0443,-0.28909 0,-0.39874 z m -13.17554,-0.60283 c 0.73456,-0.39313 1.04169,-2.07375 0.55203,-3.02065 -0.40769,-0.78838 -1.94138,-1.27221 -2.44292,-0.77066 -0.26534,0.26534 -0.23954,0.45506 0.0469,0.34512 0.13108,-0.0503 0.19753,-0.17364 0.14767,-0.27411 -0.0499,-0.10047 0.0306,-0.0391 0.17871,0.13634 0.18788,0.22248 0.29199,0.25867 0.34412,0.11962 0.11283,-0.30099 0.52592,-0.23904 0.53171,0.0798 0.003,0.15351 0.11045,0.41844 0.23925,0.58872 0.28203,0.37289 0.2991,1.3474 0.0297,1.69709 -0.10687,0.13873 -0.4122,0.29536 -0.67852,0.34806 -0.42921,0.0849 -0.50955,0.0386 -0.70725,-0.40804 l -0.22303,-0.50386 -0.12665,0.47358 c -0.18801,0.70299 0.41811,1.21009 1.59151,1.33153 0.11542,0.012 0.34794,-0.0522 0.51671,-0.14249 z m -1.98047,-0.71302 c -0.0505,-0.13158 -0.0223,-0.23924 0.0627,-0.23924 0.085,0 0.15449,0.10766 0.15449,0.23924 0,0.13159 -0.0282,0.23925 -0.0627,0.23925 -0.0345,0 -0.104,-0.10766 -0.15449,-0.23925 z m -1.85629,0.23925 c 0,-0.0877 -0.0718,-0.1595 -0.15949,-0.1595 -0.0877,0 -0.1595,0.0718 -0.1595,0.1595 0,0.0877 0.0718,0.15949 0.1595,0.15949 0.0877,0 0.15949,-0.0718 0.15949,-0.15949 z m 7.41607,-0.15864 c 0.0958,-0.15492 -0.26568,-1.98929 -0.83297,-4.22753 -0.26352,-1.03974 -0.31038,-1.11266 -0.68171,-1.061 -0.21931,0.0305 -0.42262,0.0783 -0.4518,0.10622 -0.0643,0.0616 1.05679,4.99903 1.1806,5.19935 0.11845,0.19166 0.66421,0.17984 0.78588,-0.017 z m 2.73499,-1.05019 c -0.0551,-0.40168 -0.24845,-1.35268 -0.42975,-2.11333 -0.62926,-2.63996 -0.60489,-2.57923 -1.03488,-2.57923 -0.50326,0 -0.50449,0.23099 -0.0128,2.39536 0.67487,2.97077 0.69668,3.02754 1.16326,3.02754 0.40029,0 0.41089,-0.0246 0.31417,-0.73034 z m 4.17557,0.0782 c 1.51709,-0.52886 1.50043,-3.23182 -0.0252,-4.0873 -0.56564,-0.31717 -1.75825,-0.25176 -2.23409,0.12253 -0.97171,0.76435 -0.88687,2.47523 0.17079,3.444 0.31098,0.28486 0.75294,0.54686 0.98213,0.58224 0.22919,0.0354 0.45982,0.0751 0.51253,0.0882 0.0527,0.0131 0.31992,-0.0542 0.59382,-0.1497 z m -1.49438,-1.49386 c -0.45262,-0.45264 -0.49311,-0.82794 -0.1432,-1.3275 0.35202,-0.50257 1.07247,-0.47086 1.4946,0.0658 0.42943,0.54593 0.4201,1.09391 -0.0239,1.40491 -0.49956,0.34991 -0.87486,0.30943 -1.32748,-0.14319 z m -10.75879,0.0725 c 0,-0.0877 -0.0718,-0.1595 -0.15949,-0.1595 -0.0877,0 -0.1595,0.0718 -0.1595,0.1595 0,0.0877 0.0718,0.15949 0.1595,0.15949 0.0877,0 0.15949,-0.0718 0.15949,-0.15949 z m -33.23854,-1.34132 c 0.0474,-0.12368 -0.0263,-0.44256 -0.16388,-0.70862 -0.14354,-0.27758 -0.37731,-1.60111 -0.54848,-3.10535 -0.16407,-1.44187 -0.34016,-2.68929 -0.39131,-2.77206 -0.0981,-0.1587 -3.04051,0.11929 -3.226,0.30479 -0.0556,0.0556 0.0413,0.30416 0.2153,0.55229 0.24016,0.3424 0.36177,0.93171 0.50454,2.44486 0.26246,2.78186 0.16303,2.59933 1.37388,2.52223 1.01763,-0.0648 1.01767,-0.0648 1.26715,0.46095 0.26129,0.55063 0.80783,0.72038 0.9688,0.30091 z m -7.07919,-0.54382 c 0.10482,-0.10483 0.0964,-0.90205 -0.0248,-2.35796 -0.17626,-2.11644 -0.17087,-2.21625 0.14258,-2.64021 0.17917,-0.24236 0.32577,-0.49002 0.32577,-0.55038 0,-0.18374 -3.07388,0.0938 -3.32231,0.3 -0.18996,0.15765 -0.21412,0.5394 -0.13344,2.10801 0.0542,1.05352 0.14723,2.2659 0.20674,2.6942 l 0.10821,0.77873 1.26946,-0.087 c 0.6982,-0.0479 1.34072,-0.15827 1.42782,-0.24537 z m 12.19891,-1.34138 c 0.24537,-0.10788 0.48201,-0.24068 0.52587,-0.29512 0.0439,-0.0545 0.22969,-0.17785 0.41295,-0.27425 0.50524,-0.26574 1.58327,-1.78224 1.79329,-2.5227 0.34416,-1.21336 0.12793,-3.16115 -0.37222,-3.35307 -0.27488,-0.10549 -2.00541,0.24094 -2.26826,0.45406 -0.1503,0.12187 -0.11737,0.29296 0.14369,0.74655 0.2598,0.45141 0.31302,0.72522 0.22852,1.17564 -0.27147,1.44702 -1.64562,2.05543 -2.51819,1.11494 -0.50509,-0.54439 -0.61601,-0.97948 -0.44408,-1.74183 0.0736,-0.32622 0.10227,-0.64411 0.0638,-0.70641 -0.11426,-0.18487 -1.88701,0.33348 -2.1035,0.61507 -0.42594,0.55399 0.003,2.5712 0.76781,3.61243 0.87636,1.19278 2.54595,1.71296 3.77035,1.17469 z m 22.21744,-1.1782 c 0,-0.0336 -0.14355,-0.0611 -0.31899,-0.0611 -0.17545,0 -0.319,0.065 -0.319,0.14456 0,0.0795 0.14355,0.10703 0.319,0.0611 0.17544,-0.0459 0.31899,-0.11093 0.31899,-0.14455 z m -11.00528,-0.58984 0.87723,-0.20116 -0.0129,-1.0755 c -0.007,-0.59153 -0.0938,-1.15635 -0.19259,-1.25516 -0.13322,-0.13323 -0.52156,-0.13189 -1.50229,0.005 -2.28054,0.31868 -2.4563,0.18505 -0.83094,-0.63168 1.32654,-0.66656 1.9805,-1.38082 1.9805,-2.16312 v -0.57572 l -1.22431,0.0926 c -0.89055,0.0673 -1.33622,0.18125 -1.63484,0.41785 -0.22579,0.17891 -0.85026,0.54178 -1.3877,0.80641 -0.53745,0.26464 -1.24536,0.778 -1.57315,1.14084 -0.56218,0.62226 -0.59197,0.70812 -0.52514,1.51399 0.0843,1.0166 0.37276,1.39233 1.48049,1.92838 0.72278,0.34978 0.93194,0.37713 2.23295,0.29212 0.78951,-0.0516 1.83023,-0.18433 2.31271,-0.29496 z m 9.17762,0.19909 c 0.16366,-0.2648 0.0168,-0.30153 -0.21221,-0.0531 -0.11312,0.12273 -0.1353,0.22315 -0.0493,0.22315 0.086,0 0.20368,-0.0765 0.2615,-0.1701 z m -4.97395,-2.21216 c -0.0127,-0.45966 -0.15145,-1.65481 -0.30845,-2.65593 -0.3197,-2.03851 -0.31786,-2.03672 -1.7028,-1.65211 -0.67905,0.18859 -0.66395,-0.0471 -0.18224,2.84339 0.12253,0.7352 0.22277,1.53679 0.22277,1.7813 0,0.85815 0.0769,0.90822 1.08217,0.70414 l 0.91154,-0.18504 z m 6.08347,-0.19634 c 0.15706,-0.16955 0.0963,-0.73495 -0.30007,-2.7926 -0.27336,-1.419 -0.53732,-2.61964 -0.58658,-2.6681 -0.15275,-0.15024 -1.95379,0.20524 -2.17855,0.43001 -0.17732,0.17731 -0.13201,0.61912 0.27218,2.65366 0.2667,1.34251 0.5297,2.5134 0.58444,2.60197 0.13907,0.22501 1.96394,0.0392 2.20858,-0.22494 z m -30.304,-1.06734 2.39246,-0.26173 0.0474,-0.72749 c 0.0261,-0.40011 -0.026,-0.92036 -0.11559,-1.15612 -0.14204,-0.37358 -0.23007,-0.418 -0.68537,-0.34576 -0.28732,0.0456 -1.32479,0.14079 -2.3055,0.21159 -1.53497,0.11078 -1.92796,0.20002 -2.82417,0.64122 -1.12481,0.55374 -2.17135,1.45386 -2.17135,1.86758 0,0.22746 0.19024,0.24432 1.63485,0.14494 0.89916,-0.0619 2.71144,-0.23027 4.02729,-0.37423 z m 6.69887,-1.21535 c 4.28222,-0.80683 4.27138,-0.8023 3.54663,-1.48318 -1.47045,-1.3814 -3.99085,-0.97747 -5.17222,0.82892 -0.28221,0.43152 -0.47932,0.83924 -0.43802,0.90607 0.0413,0.0668 0.2713,0.0848 0.51111,0.04 0.23981,-0.0448 0.93844,-0.17615 1.5525,-0.29185 z m 33.16192,0.0875 c 0.15322,-0.12716 0.18084,-0.33095 0.094,-0.69371 -0.31046,-1.29737 -1.16424,-4.50753 -1.21374,-4.56359 -0.0869,-0.0984 -1.97761,0.33309 -2.06266,0.47071 -0.0419,0.0678 -0.009,0.4703 0.0742,0.89431 0.0827,0.42402 0.26786,1.41691 0.4114,2.20642 0.14354,0.78951 0.29221,1.54745 0.33039,1.68433 0.0551,0.1976 0.28365,0.24194 1.10943,0.21523 0.57201,-0.0185 1.13765,-0.11468 1.25697,-0.2137 z m 5.16338,-0.82579 c 0.72711,-0.16601 1.46287,-0.30183 1.63501,-0.30183 0.47713,0 1.51825,-1.17271 1.73803,-1.95768 0.26535,-0.94774 0.26852,-2.26764 0.008,-3.26816 -0.21808,-0.83707 -0.22052,-0.83946 -0.78613,-0.7697 -0.93057,0.11478 -1.14294,0.24223 -0.96318,0.5781 0.0861,0.16091 0.15657,0.57888 0.15657,0.9288 0,1.27107 -1.26546,2.1329 -3.58868,2.44401 -1.94947,0.26108 -2.04362,0.31672 -1.90991,1.12881 0.0613,0.37212 0.20959,0.91518 0.32961,1.2068 l 0.21823,0.53025 0.92028,-0.10879 c 0.50616,-0.0598 1.5152,-0.24461 2.24231,-0.41061 z m -27.32002,-0.88416 c 1.05268,-0.14313 2.00819,-0.34689 2.12336,-0.45279 0.30167,-0.2774 -0.43425,-1.106 -1.33691,-1.50529 -0.61487,-0.27197 -0.86977,-0.29374 -2.021,-0.17251 -0.72457,0.0763 -1.62243,0.1888 -1.99526,0.24998 -0.67534,0.11084 -0.67786,0.1138 -0.67786,0.79822 0,0.37783 0.0718,0.87591 0.15963,1.10683 0.18137,0.47704 0.0539,0.47788 3.74804,-0.0244 z m 18.62931,-0.2695 c 0.0451,-0.11761 0.017,-0.31499 -0.0624,-0.43862 -0.0794,-0.12362 -0.10102,-0.43113 -0.0479,-0.68334 0.0661,-0.31409 0.0409,-0.4242 -0.08,-0.34946 -0.0971,0.06 -0.17655,0.0402 -0.17655,-0.044 0,-0.0842 -0.24871,-0.2999 -0.55269,-0.47925 -0.50028,-0.29517 -0.64399,-0.30913 -1.51522,-0.14711 -0.52939,0.0985 -0.96253,0.24497 -0.96253,0.3256 0,0.41152 0.78886,1.15799 1.65849,1.5694 1.06001,0.50147 1.61114,0.57971 1.73887,0.24682 z m -13.12287,-0.82524 c 0.17645,-0.10906 0.1811,-0.91613 0.009,-1.51287 -0.12048,-0.41707 -0.23949,-0.43654 -1.41985,-0.23234 -0.50858,0.088 -0.52663,0.1156 -0.44464,0.68038 0.047,0.32378 0.0882,0.76018 0.0915,0.96977 0.006,0.36327 0.0435,0.37666 0.80731,0.28619 0.44071,-0.0522 0.87135,-0.13821 0.95698,-0.19113 z m 4.54186,-0.63069 c 0.87724,-0.13239 1.95384,-0.33744 2.39246,-0.45569 l 0.79748,-0.215 -0.0333,-0.93082 c -0.0183,-0.51196 -0.12597,-1.02188 -0.23924,-1.13318 -0.16659,-0.16369 -0.73947,-0.0966 -2.99715,0.35113 -3.72626,0.73892 -3.4011,0.59231 -3.27635,1.47725 0.0575,0.40802 0.1441,0.87654 0.1924,1.04118 0.0972,0.33138 0.0647,0.33277 3.16369,-0.13487 z m 15.06461,-0.0979 c 0.87638,-0.18795 0.97582,-0.37579 0.5461,-1.03163 -0.18861,-0.28784 -0.23062,-0.57455 -0.15421,-1.05236 l 0.10501,-0.65672 -0.84264,0.10991 c -1.6816,0.21934 -1.6116,0.15745 -1.5166,1.34098 0.0603,0.75117 0.16414,1.10348 0.36952,1.25366 0.34638,0.25328 0.46685,0.2562 1.49282,0.0362 z m -9.40241,-1.38237 c 3e-5,-0.0658 0.23329,-0.1324 0.51836,-0.14802 0.28507,-0.0156 0.87384,-0.1808 1.30838,-0.3671 0.43454,-0.1863 1.29432,-0.37539 1.91064,-0.42021 0.61631,-0.0448 1.14713,-0.10802 1.1796,-0.1405 0.11327,-0.11327 -0.15677,-1.32923 -0.35558,-1.60112 -0.18939,-0.25899 -0.26533,-0.25887 -1.38406,0.002 -2.17128,0.50722 -2.44491,0.62166 -3.13752,1.31229 -0.75428,0.75213 -0.93099,1.48181 -0.35887,1.48181 0.17544,0 0.31902,-0.0538 0.31905,-0.11962 z m 9.59201,-1.87521 c 2.21263,-0.39882 4.28688,-1.01673 4.39969,-1.31063 0.0826,-0.2152 -0.25997,-0.61215 -0.89732,-1.03978 -0.90419,-0.60666 -2.97046,-0.22688 -4.12027,0.75732 -0.8708,0.74537 -1.37407,1.83345 -0.84803,1.83345 0.0728,0 0.73252,-0.10815 1.46593,-0.24036 z m -29.34411,-26.55133 c 0.14564,-0.17752 0.37891,-0.32277 0.51836,-0.32277 0.13946,0 0.25356,-0.0542 0.25356,-0.12056 0,-0.0663 0.21532,-0.21587 0.47849,-0.33236 0.26317,-0.1165 0.47849,-0.30833 0.47849,-0.42629 0,-0.11796 0.0937,-0.30933 0.20829,-0.42525 0.2918,-0.29526 0.47998,-0.81891 0.24127,-0.67137 -0.13033,0.0805 -0.14612,0.0242 -0.0536,-0.19109 0.0722,-0.16791 0.13952,-0.56979 0.1497,-0.89308 0.0102,-0.32328 0.0632,-0.63248 0.11782,-0.68709 0.12783,-0.12784 -0.0243,-0.71882 -0.185,-0.71882 -0.22436,0 -0.30832,-0.69783 -0.11295,-0.93867 0.15803,-0.1948 0.14598,-0.22006 -0.067,-0.14039 -0.14282,0.0534 -0.35073,0.0131 -0.46201,-0.0897 -0.14034,-0.12966 -0.17128,-0.13139 -0.10098,-0.006 0.0792,0.14157 -0.34003,0.37512 -0.65836,0.36679 -0.0251,0 -0.1558,0.10903 -0.29052,0.24376 -0.13472,0.13471 -0.34747,0.24494 -0.47279,0.24494 -0.12532,0 -0.22785,0.10766 -0.22785,0.23925 0,0.13158 -0.1119,0.23924 -0.24866,0.23924 -0.13676,0 -0.20984,0.0628 -0.1624,0.13958 0.0475,0.0768 -0.21747,0.19209 -0.5887,0.25629 -0.37123,0.0642 -0.58225,0.15192 -0.46893,0.19494 0.16352,0.0621 0.16564,0.12686 0.0102,0.3141 -0.15642,0.18846 -0.14974,0.26502 0.0332,0.38078 0.19536,0.12362 0.19581,0.14525 0.003,0.14734 -0.12427,0.002 -0.18095,0.0474 -0.12595,0.10245 0.055,0.055 -0.006,0.35312 -0.135,0.66248 -0.12926,0.30935 -0.1993,0.59818 -0.15566,0.64183 0.0437,0.0436 -0.0269,0.15823 -0.15689,0.25462 -0.13623,0.10108 -0.27901,0.57198 -0.33722,1.1123 l -0.10097,0.93703 1.17706,-0.0959 c 0.91262,-0.0743 1.23656,-0.16839 1.44187,-0.41866 z m -2.40437,-0.004 c -0.005,-0.13158 0.0608,-0.3469 0.14585,-0.47849 0.18841,-0.29156 0.18841,-0.0397 0,0.39874 -0.0904,0.21033 -0.14006,0.23751 -0.14585,0.0798 z m -1.15652,-7.47666 c 0.16425,-0.10412 0.14301,-0.1532 -0.093,-0.21492 -0.19102,-0.05 -0.30589,0.002 -0.30589,0.13737 0,0.24947 0.0977,0.26847 0.39893,0.0776 z m 19.11215,-39.45528 c -0.0443,-0.10966 -0.0805,-0.0199 -0.0805,0.19937 0,0.21931 0.0362,0.30902 0.0805,0.19937 0.0442,-0.10966 0.0442,-0.28909 0,-0.39874 z m -50.63689,-7.17182 c -0.11445,-0.11444 -0.18874,-0.12386 -0.18874,-0.0239 0,0.21289 0.18862,0.40152 0.29507,0.29507 0.0453,-0.0453 -0.002,-0.16734 -0.10633,-0.27115 z m 53.88069,-1.2352 c 0,-0.17203 0.15118,-0.45362 0.33596,-0.62577 0.18477,-0.17215 0.28786,-0.39081 0.22907,-0.48593 -0.0744,-0.12044 -0.16877,-0.11104 -0.31076,0.0309 -0.48734,0.48734 -0.75641,1.39353 -0.41377,1.39353 0.0877,0 0.1595,-0.14075 0.1595,-0.31278 z m 3.73786,-5.891333 c -0.10012,-0.10012 -0.38482,0.30497 -0.38091,0.54197 10e-4,0.0877 0.10727,0.0212 0.23515,-0.14785 0.12789,-0.16904 0.19348,-0.3464 0.14576,-0.39412 z m -12.92735,-5.069562 c 0.15527,0.0596 0.19768,-0.006 0.14173,-0.22024 -0.0439,-0.1679 -0.13848,-0.26902 -0.21017,-0.22471 -0.0717,0.0443 -0.17615,0.006 -0.23213,-0.0841 -0.056,-0.0906 -0.16365,-0.12648 -0.23925,-0.0798 -0.0756,0.0467 -0.33232,-0.0957 -0.5705,-0.3164 -0.51706,-0.47919 -0.47762,-0.47089 -0.47762,-0.10047 0,0.19663 0.0849,0.27501 0.24494,0.22623 0.16345,-0.0498 0.14194,0.009 -0.0647,0.17762 -0.27146,0.22119 -0.27638,0.25226 -0.0399,0.25226 0.14835,0 0.2787,0.0718 0.28966,0.1595 0.0401,0.32079 0.0674,0.40306 0.20729,0.624 0.11635,0.1838 0.19657,0.15862 0.4358,-0.13683 0.16127,-0.19915 0.39291,-0.32383 0.51478,-0.27707 z m 15.88592,-0.72847 c 0.001,-0.0658 -0.0693,-0.11962 -0.15706,-0.11962 -0.0877,0 -0.1584,0.16149 -0.15705,0.35887 0.002,0.29019 0.032,0.31309 0.15705,0.11962 0.085,-0.13158 0.15571,-0.29307 0.15706,-0.35887 z m -50.96099,-7.74233 c 0.0519,-0.13528 0.0203,-0.3201 -0.0703,-0.4107 -0.0906,-0.0906 -0.16473,-0.32557 -0.16473,-0.52216 0,-0.59099 -0.30967,-0.59713 -1.11086,-0.022 -0.3729,0.26768 -0.37513,0.28254 -0.0895,0.59811 0.16107,0.17799 0.22791,0.32866 0.14852,0.33482 -0.0794,0.006 -8e-4,0.0682 0.17465,0.13774 0.51011,0.20234 1.01019,0.15027 1.11229,-0.11581 z m -2.4266,-2.29734 c 1.31325,-0.68323 1.43253,-0.91773 0.31352,-0.61642 -0.69646,0.18754 -1.65076,0.77939 -1.75153,1.08628 -0.0992,0.30208 0.0445,0.25514 1.43801,-0.46986 z m -5.90795,-2.75169 c 0.0469,0.0469 0.12199,-0.0105 0.1669,-0.12756 0.0524,-0.13668 -0.0546,-0.22409 -0.29929,-0.24434 -0.29127,-0.0241 -0.38095,0.0478 -0.38095,0.30521 0,0.26362 0.0465,0.29816 0.21405,0.15909 0.11772,-0.0977 0.2524,-0.13928 0.29929,-0.0924 z m 3.49735,-3.63602 c 0.11879,-0.0422 0.1671,-0.12946 0.10736,-0.1939 -0.1476,-0.15921 -1.2471,0.735 -1.2471,1.01425 -10e-6,0.13111 0.19035,0.0238 0.46188,-0.26029 0.25404,-0.26583 0.55907,-0.51786 0.67786,-0.56006 z m 21.18981,-1.94521 c 0,-0.0387 -0.0718,-0.1147 -0.15949,-0.16891 -0.0877,-0.0542 -0.1595,-0.0226 -0.1595,0.0703 0,0.0929 0.0718,0.16891 0.1595,0.16891 0.0877,0 0.15949,-0.0316 0.15949,-0.0703 z m -17.75469,-7.615422 c -0.0509,-0.127236 -0.0887,-0.08944 -0.0964,0.09636 -0.007,0.168135 0.0308,0.262339 0.0838,0.20934 0.053,-0.053 0.0587,-0.190567 0.0126,-0.305703 z m 49.81356,-10.434202 c 0,-0.162303 0.0877,-0.222637 0.23924,-0.164502 0.46504,0.17845 0.22413,-0.305394 -0.5052,-1.01466 -0.40592,-0.394755 -0.69561,-0.596769 -0.64374,-0.448922 0.0519,0.147849 0.009,0.299494 -0.0961,0.33699 -0.12541,0.0449 -0.0679,0.201647 0.16846,0.4592 0.19738,0.215065 0.35887,0.500043 0.35887,0.633283 0,0.133242 0.0479,0.290108 0.10633,0.348589 0.18794,0.187944 0.37216,0.113707 0.37216,-0.149978 z m -55.58465,-9.515289 c 0.10691,-0.107657 0.028,-0.127876 -0.23925,-0.06133 -0.21931,0.0546 -0.48846,0.10025 -0.59811,0.101448 -0.10966,0.0013 -0.19937,0.07532 -0.19937,0.164712 0,0.191789 0.79976,0.03378 1.03673,-0.204826 z m -0.87724,-0.276703 c 0,-0.08772 -0.076,-0.159497 -0.16891,-0.159497 -0.0929,0 -0.12455,0.07177 -0.0703,0.159497 0.0542,0.08772 0.13023,0.159497 0.16891,0.159497 0.0387,0 0.0703,-0.07177 0.0703,-0.159497 z m 17.60269,-9.32965 c -0.0503,-0.13108 -0.16337,-0.193882 -0.25127,-0.139559 -0.0983,0.06073 -0.0765,0.151576 0.0566,0.235888 0.29041,0.184014 0.30037,0.179089 0.19468,-0.09633 z m 6.80033,-0.718651 c 0,-0.08772 -0.11189,-0.159497 -0.24866,-0.159497 -0.13676,0 -0.2043,0.07177 -0.15008,0.159497 0.0542,0.08772 0.16611,0.159497 0.24866,0.159497 0.0825,0 0.15008,-0.07177 0.15008,-0.159497 z m -0.7398,-0.398742 c -0.0505,-0.131585 -0.15003,-0.239245 -0.2212,-0.239245 -0.0712,0 -0.24292,-0.04357 -0.38168,-0.09681 -0.13876,-0.05325 -0.25229,-0.02334 -0.25229,0.06646 0,0.135451 0.17174,0.228891 0.91211,0.496254 0.0192,0.0069 -0.006,-0.09507 -0.0569,-0.226653 z m -3.56661,-2.215891 c 0,-0.03448 -0.10766,-0.103997 -0.23925,-0.154492 -0.13158,-0.05049 -0.23924,-0.02228 -0.23924,0.06268 0,0.08497 0.10766,0.154492 0.23924,0.154492 0.13159,0 0.23925,-0.02821 0.23925,-0.06268 z m 5.74188,179.528535 c 0,-0.1579 0.0897,-0.37686 0.19938,-0.48658 0.14745,-0.14753 0.18516,-0.85147 0.1448,-2.70347 -0.036,-1.65101 -7.9e-4,-2.44966 0.10313,-2.34449 0.2478,0.25065 1.78565,3.21311 1.78565,3.43984 0,0.1119 0.11621,0.33188 0.25824,0.48882 0.14203,0.15695 0.42582,0.64707 0.63065,1.08916 l 0.37241,0.80382 h -1.74713 c -1.57609,0 -1.74713,-0.0281 -1.74713,-0.2871 z m -3.7491,-3.22735 c -0.0709,-0.41964 -0.0412,-0.72482 0.0853,-0.87724 0.1934,-0.23302 0.81362,-0.31936 0.99453,-0.13842 0.0844,0.0844 -0.78792,1.65916 -0.91902,1.65916 -0.0286,0 -0.10097,-0.28958 -0.16076,-0.6435 z m 6.62055,-0.26931 c -0.26702,-0.33948 -0.31874,-0.55721 -0.23676,-0.99686 0.11887,-0.63752 0.5538,-1.12077 1.00873,-1.12077 0.3904,0 0.8225,0.65062 0.8225,1.23846 0,0.24872 0.0897,0.5489 0.19937,0.66708 0.16228,0.17489 0.15023,0.19767 -0.0648,0.1224 -0.15339,-0.0537 -0.38111,0.0368 -0.54309,0.21577 -0.38678,0.42739 -0.78383,0.38517 -1.18599,-0.12608 z m -16.02089,-83.01802 c -0.13656,-0.19496 -0.24829,-0.49559 -0.24829,-0.66806 0,-0.30975 0.004,-0.30968 0.29742,0.006 0.16358,0.17559 0.38142,0.47621 0.4841,0.66807 0.2607,0.48713 -0.19143,0.48233 -0.53323,-0.006 z m -8.96597,-7.89048 c -0.27935,-0.0545 -0.35872,-0.20801 -0.42181,-0.81564 -0.1305,-1.2566 -0.17678,-1.37927 -0.60048,-1.59158 -0.39686,-0.19886 -1.23532,-1.78857 -0.94335,-1.78857 0.0743,0 0.18224,0.14874 0.23993,0.33053 0.0721,0.22727 0.18761,0.29832 0.36962,0.22743 0.44987,-0.17522 0.58518,-0.16676 0.54585,0.0341 -0.0208,0.10633 0.14066,0.38596 0.35886,0.62141 0.2182,0.23544 0.39673,0.49843 0.39673,0.58442 0,0.086 0.21532,0.58008 0.47849,1.09796 0.69649,1.3706 0.6511,1.50982 -0.42384,1.29993 z m -2.04836,-5.31226 c -0.0606,-0.27572 -0.0769,-0.53455 -0.0362,-0.57519 0.0406,-0.0406 0.11974,0.1554 0.17578,0.43563 0.13297,0.66482 0.004,0.79367 -0.13956,0.13956 z m -0.75761,-1.53053 c -0.52633,-0.26423 -0.75761,-0.47819 -0.75761,-0.70088 0,-0.1763 0.0718,-0.32054 0.1595,-0.32054 0.0877,0 0.15949,0.0718 0.15949,0.15949 0,0.0877 0.18712,0.1595 0.41581,0.1595 0.33106,0 0.39367,-0.0569 0.30718,-0.27912 -0.17451,-0.44838 -0.17466,-0.55453 -9.6e-4,-0.6195 0.17088,-0.0639 0.49003,0.60834 0.71059,1.49673 0.15417,0.621 0.0557,0.63133 -0.99407,0.10432 z m 48.91572,-1.08665 c -0.0644,-0.25519 -0.036,-0.79349 0.0632,-1.19623 0.0992,-0.40274 0.22221,-1.09112 0.27343,-1.52974 0.16511,-1.41381 0.21025,-1.47451 0.66474,-0.89377 0.21847,0.27915 0.62308,0.60653 0.89912,0.72752 l 0.50191,0.21998 -0.51836,0.013 c -0.61222,0.0154 -0.70275,0.3816 -0.16541,0.66918 l 0.35296,0.18889 -0.33549,0.12411 c -0.42751,0.15815 -0.9185,1.09851 -0.69188,1.32513 0.0891,0.0891 0.16036,0.2732 0.15841,0.40917 -0.003,0.17528 -0.0898,0.13503 -0.29993,-0.13832 l -0.29637,-0.38554 -0.2446,0.46529 -0.24459,0.46529 -0.11713,-0.46397 z m -44.17069,-40.287481 c -0.0542,-0.08772 -0.0226,-0.159496 0.0703,-0.159496 0.0929,0 0.16891,0.07177 0.16891,0.159496 0,0.08772 -0.0317,0.159497 -0.0703,0.159497 -0.0387,0 -0.11469,-0.07177 -0.16891,-0.159497 z m 53.36429,-10.779327 c 0.008,-0.185806 0.0455,-0.223599 0.0964,-0.09636 0.0461,0.115136 0.0404,0.252704 -0.0126,0.305703 -0.053,0.053 -0.0907,-0.0412 -0.0838,-0.209339 z m -0.13554,-2.488816 c 0.0986,-0.295742 0.44194,-0.344794 0.44194,-0.06313 0,0.138895 -0.11364,0.252536 -0.25253,0.252536 -0.1389,0 -0.22413,-0.08523 -0.18941,-0.189402 z"
       id="path2843-4"
       clip-path="url(#clipPath113)"
       transform="translate(796.86333,113.50343)" />
  </g>
</svg>
